<svg xmlns="http://www.w3.org/2000/svg" version="1.1" xmlns:xlink="http://www.w3.org/1999/xlink" xmlns:svgjs="http://svgjs.dev/svgjs" width="2000" height="1247" viewBox="0 0 2000 1247"><g transform="matrix(1,0,0,1,-1.2121212121212466,111.58099950926271)"><svg viewBox="0 0 396 247" data-background-color="#ffffff" preserveAspectRatio="xMidYMid meet" height="1247" width="2000" xmlns="http://www.w3.org/2000/svg" xmlns:xlink="http://www.w3.org/1999/xlink"><g id="tight-bounds" transform="matrix(1,0,0,1,0.2400000000000091,-0.09999999999999432)"><svg viewBox="0 0 395.52 247.2" height="247.2" width="395.52"><g><svg></svg></g><g><svg viewBox="0 0 395.52 247.2" height="247.2" width="395.52"><g transform="matrix(1,0,0,1,75.54432,105.81862032786884)"><svg viewBox="0 0 244.43135999999998 35.5627593442623" height="35.5627593442623" width="244.43135999999998"><g><svg viewBox="0 0 244.43135999999998 35.5627593442623" height="35.5627593442623" width="244.43135999999998"><g><svg viewBox="0 0 244.43135999999998 35.5627593442623" height="35.5627593442623" width="244.43135999999998"><g><svg viewBox="0 0 244.43135999999998 35.5627593442623" height="35.5627593442623" width="244.43135999999998"><g><svg viewBox="0 0 244.43135999999998 35.5627593442623" height="35.5627593442623" width="244.43135999999998"><g><svg viewBox="0 0 244.43135999999998 35.5627593442623" height="35.5627593442623" width="244.43135999999998"><g transform="matrix(1,0,0,1,0,0)"><svg width="244.43135999999998" viewBox="2.9000000953674316 -38.349998474121094 268.3800048828125 39.04999923706055" height="35.5627593442623" data-palette-color="#fb8500"><path d="M38-36L36.6-28.2 24.3-28.2 19.35 0 10.3 0 15.25-28.2 2.9-28.2 4.3-36 38-36ZM46.45-6.4L46.45-6.4Q47.6-6.4 48.5-6.9L48.5-6.9 48.25-1.25Q45.9 0.7 42.9 0.7L42.9 0.7Q38.35 0.7 37-1.4L37-1.4Q36.1-2.8 36.1-4.38 36.1-5.95 36.3-7.15L36.3-7.15 39.3-24.05 47.8-24.05 45-8.3Q44.95-8 44.95-7.75L44.95-7.75Q44.95-6.4 46.45-6.4ZM40.3-32.2L40.3-32.2Q40.3-35.4 41.72-36.88 43.15-38.35 46.15-38.35L46.15-38.35Q50.35-38.35 50.35-34.65L50.35-34.65Q50.35-31.5 48.92-30.05 47.5-28.6 44.45-28.6L44.45-28.6Q40.3-28.6 40.3-32.2ZM61.65 0.7L61.65 0.7Q51.25 0.7 51.25-6.5L51.25-6.5Q51.25-7.5 51.45-8.65L51.45-8.65 52.5-14.85Q53.3-19.65 56.87-22.2 60.45-24.75 65.95-24.8L65.95-24.8Q76.6-24.8 76.6-17.4L76.6-17.4Q76.6-15.8 76.22-14.53 75.85-13.25 75.45-12.8L75.45-12.8 75.05-12.3 66.55-12.3Q67.8-13.4 67.8-14.9L67.8-14.9Q67.8-17.6 65.1-17.6L65.1-17.6Q63.5-17.6 62.35-16.65 61.2-15.7 60.85-13.75L60.85-13.75 60.2-10.1Q60.1-9.6 60.1-9.15L60.1-9.15Q60.1-6.5 63.4-6.5L63.4-6.5Q64.5-6.5 65.37-7.2 66.25-7.9 66.4-8.75L66.4-8.75 74.7-8.65Q73.05 0.7 61.65 0.7ZM127.94-36L126.54-28.2 114.24-28.2 109.29 0 100.24 0 105.19-28.2 92.84-28.2 94.24-36 127.94-36ZM143.39-7.7L143.39-7.7Q143.39-6.4 144.71-6.4 146.04-6.4 146.94-6.9L146.94-6.9 146.69-1.25Q144.29 0.7 141.29 0.7L141.29 0.7Q135.79 0.7 135.19-3.3L135.19-3.3Q132.69 0.7 127.84 0.7L127.84 0.7Q119.64 0.7 119.64-6.35L119.64-6.35Q119.64-7.55 119.89-9L119.89-9 120.94-14.85Q121.74-19.35 124.61-22.03 127.49-24.7 132.11-24.7 136.74-24.7 138.39-22.55L138.39-22.55 138.64-24.05 146.24-24.05 143.44-8.3Q143.39-8 143.39-7.7ZM129.24-13.85L128.59-10.1Q128.49-9.65 128.49-8.85 128.49-8.05 129.24-7.28 129.99-6.5 131.76-6.5 133.54-6.5 134.84-7.9L134.84-7.9 136.34-16.3Q135.79-17.55 133.74-17.55L133.74-17.55Q129.89-17.55 129.24-13.85L129.24-13.85ZM160.13 0.7L160.13 0.7Q149.74 0.7 149.74-6.5L149.74-6.5Q149.74-7.5 149.94-8.65L149.94-8.65 150.99-14.85Q151.78-19.65 155.36-22.2 158.94-24.75 164.44-24.8L164.44-24.8Q175.09-24.8 175.09-17.4L175.09-17.4Q175.09-15.8 174.71-14.53 174.34-13.25 173.94-12.8L173.94-12.8 173.53-12.3 165.03-12.3Q166.28-13.4 166.28-14.9L166.28-14.9Q166.28-17.6 163.59-17.6L163.59-17.6Q161.99-17.6 160.84-16.65 159.69-15.7 159.34-13.75L159.34-13.75 158.69-10.1Q158.59-9.6 158.59-9.15L158.59-9.15Q158.59-6.5 161.88-6.5L161.88-6.5Q162.99-6.5 163.86-7.2 164.74-7.9 164.88-8.75L164.88-8.75 173.19-8.65Q171.53 0.7 160.13 0.7ZM226.43-36L225.03-28.2 212.73-28.2 207.78 0 198.73 0 203.68-28.2 191.33-28.2 192.73-36 226.43-36ZM233.13-24.75L233.13-24.75Q238.53-24.75 241.28-22.4L241.28-22.4Q243.43-20.55 243.43-17.25L243.43-17.25Q243.43-16.15 243.18-14.85L243.18-14.85 242.13-9Q241.18-3.7 237.7-1.5 234.23 0.7 228.43 0.7 222.63 0.7 219.93-1.5L219.93-1.5Q217.93-3.15 217.93-6.45L217.93-6.45Q217.93-7.6 218.18-9L218.18-9 219.23-14.85Q220.98-24.75 233.13-24.75ZM233.83-10.1L234.48-13.85Q234.58-14.35 234.58-15.13 234.58-15.9 233.93-16.85 233.28-17.8 231.65-17.8 230.03-17.8 228.93-16.73 227.83-15.65 227.53-13.85L227.53-13.85 226.88-10.1Q226.78-9.6 226.78-8.83 226.78-8.05 227.43-7.15 228.08-6.25 229.7-6.25 231.33-6.25 232.43-7.38 233.53-8.5 233.83-10.1L233.83-10.1ZM256.48 0.7L256.48 0.7Q246.08 0.7 246.08-6.5L246.08-6.5Q246.08-7.5 246.28-8.65L246.28-8.65 247.33-14.85Q248.18-19.65 251.75-22.23 255.33-24.8 261.23-24.8L261.23-24.8Q271.28-24.8 271.28-17.2L271.28-17.2Q271.28-16.1 271.08-14.8L271.08-14.8 270.48-11.25 255.23-11.25 255.03-10.1Q254.93-9.5 254.93-9L254.93-9Q254.93-6.25 258.18-6.25L258.18-6.25Q259.38-6.25 260.23-7 261.08-7.75 261.23-8.75L261.23-8.75 269.53-8.65Q267.88 0.7 256.48 0.7ZM255.73-14.3L262.48-14.3Q262.68-15.15 262.68-15.88 262.68-16.6 262.03-17.35 261.38-18.1 259.95-18.1 258.53-18.1 257.35-17.15 256.18-16.2 255.73-14.3L255.73-14.3Z" opacity="1" transform="matrix(1,0,0,1,0,0)" fill="#fb8500" class="undefined-text-0" data-fill-palette-color="primary" id="text-0"></path></svg></g></svg></g></svg></g></svg></g><g></g></svg></g></svg></g></svg></g><g><path d="M78.381 97.423A122.216 122.216 0 0 1 317.139 97.423L313.932 97.423A119.009 119.009 0 0 0 81.588 97.423L78.381 97.423M78.381 149.777A122.216 122.216 0 0 0 317.139 149.777L313.932 149.777A119.009 119.009 0 0 1 81.588 149.777L78.381 149.777" fill="#219ebc" stroke="transparent" data-fill-palette-color="tertiary"></path></g></svg></g><defs></defs></svg><rect width="395.52" height="247.2" fill="none" stroke="none" visibility="hidden"></rect></g></svg></g></svg>